<?xml version="1.0" encoding="UTF-8"?>
<svg xmlns="http://www.w3.org/2000/svg" id="b" viewBox="0 0 300 300">
  <defs>
    <style>.d{fill:#2d6fb7;}.d,.e,.f,.g,.h,.i,.j{stroke-width:0px;}.d,.e,.g,.h,.i,.j{fill-rule:evenodd;}.e{fill:#fbf9f2;}.f{fill:none;}.g{fill:#d6af29;}.h{fill:#231f20;}.i{fill:#2f75bb;}.j{fill:#000002;}</style>
  </defs>
  <g id="c">
    <path class="h" d="m180.34,265.13c-.55,3.38-6.31,5.44-7.11.85-.16-.91-.07-2.11.43-2.67.67-.75,1.45-.73,2.65-.68,1.77.08,4.35.5,4.03,2.5h0Zm-6.92-5.66c-.02-.67.51-4.76.63-5.74.11-.94.24-1.91.37-2.86.08-.61.47-2.34.24-2.78-.31.09-.43.65-.57.98-.44,1.07-1.08,2.61-1.31,3.7-.4,1.86-.68,3.76-.96,5.67-.42,2.86-1.42,9.39-1.08,11.99.42,3.23,2.12,5.2,5.2,4.29,2.48-.73,3.62-3.13,4.55-5.4.32-.79.66-1.57.91-2.41.24-.78.44-1.98.85-2.56,1.66.22,2.07,1.29,3.54.18.82-.61,1.76-1.83,2.53-2.25.45-.25,1.14-.6,1.52-.87.25-.17.44-.34.65-.5,1.21-.94,1.06-.39,2.28-1.33.47-.36.95-.68,1.43-1.03.26-.19.45-.3.69-.47l1.31-1.08c.47-.44,1.22-1.47,1.6-2.03,1.89-2.82,1.99-4.37,2.05-7.61.02-1.06.3-1.85-.01-2.15-.27.09-.02-.13-.4.59-.14.27-.23.44-.36.71-.24.5-.47.97-.7,1.46-.65,1.34-1.17,1.94-1.17,3.48,0,1.38.18,1.72-.64,2.59-.28.3-.44.58-.77.85-.57.46-.53.11-1.19.03l-1.06,1.34c-.67.93-.57.5-1.71.41-.66.48-.75.85-1.24,1.49-.72.93-1.26.33-2.14.49l-1.39,1.75c-.2.27-.33.3-.54.54-.92,1.07-1.61.9-3.14.47-2.22-.63-4.62-1.19-6.86-1.62l6.13-6.29c.42-.44.78-.83,1.19-1.27l2.46-2.55c.41-.36,1.95-2.16,2.38-2.55l2.34-2.67c.85-1.05,3.46-5.83,3.04-6.81-.28.07-.4.38-.6.69-.55.83-1.65,2.2-2.32,3l-3.15,3.47c-.47.43-.83.96-1.29,1.41-.96.94-1.74,1.76-2.63,2.69-2.11,2.23-5.67,5.75-8,7.95-.46.43-.84.89-1.3,1.32-.46.43-.93.86-1.36,1.29Z"></path>
    <path class="h" d="m165.55,270.23c-1.24,2.2-7.08,1.85-3.16-2.64.52-.59.77-.42,1.52-.03.94.49,2.25,1.59,1.64,2.67h0Zm-3.9-3.4c-.17.43-.64,1.05-.92,1.49-.33.52-.58.93-.83,1.56-1.49,3.62.08,5.91,3.12,4.83,2.89-1.02,6.46-7.67,5.01-10.83-.65-1.41-3.04-3.15-4.03-3.07-.13.17-.14.15-.26.33l-.57,1.04c-.48.92-2,3.8-2.15,4.5l.64.15Z"></path>
    <path class="h" d="m213.13,263.97c.62.65.39.39,1.05.96.61.53,1.06.9,1.59,1.57.98,1.24,1.46,1.9.31,3.43-.94,1.25-1.23,1.29-1.95,1.99-.71.7-1.25,1.07-2.07,1.7-.59.46-1.31.85-1.15,1.26.46.16,4.25-1.13,5.19-1.99.93-.85,2.01-3.1,2.59-4.66.88-2.34,1.32-5.17-.2-7.4l-1.73-1.89c-.24-.19-.26-.17-.5-.43-.16-.17-.24-.26-.5-.32-.31.31-2.49,5.14-2.62,5.77Z"></path>
    <path class="h" d="m203.7,273.3c.94-.04,2.29-3.58,2.61-4.45,1.63-4.45,1.45-10.68,2.12-15.63.07-.51.54-2.75.4-3-.41.06-.55.67-.71,1.06-1.71,4.08-2.39,4.82-2.63,9.68-.11,2.21-.33,4.36-.6,6.54-.13,1.04-.3,2.06-.5,3.06-.16.82-.65,2.08-.69,2.75Z"></path>
    <path class="h" d="m195.44,235.19c2.73,1.53,2.68,3.12,4.17,1.75.25-.23.33-.34.62-.61.18-.16.39-.45.55-.68,1.42-1.96,1.32-3.26-.44-4.85-.27-.24-1.09-.87-1.61-.9-.59,1.03-3.25,4.66-3.29,5.29Z"></path>
    <path class="h" d="m182.52,247.94l1.99-1.91c.66-.66,1.29-1.24,1.93-1.93.65-.7,3.23-3.1,3.33-4.45-.43.18-5.16,5.14-5.74,5.82-.56.65-1.36,1.23-1.51,2.47Z"></path>
    <path class="h" d="m175.66,237.24c.38.42.79.64,1.26,1.02.41.33.8.67,1.2.98.71.55.91.26,1.42-.26.38-.39.67-.65,1.01-1.17.55-.83,1.36-1.92.71-3.27-.42-.87-1.38-1.7-2.43-2.11-.53.36-3.07,4.4-3.18,4.8Z"></path>
    <path class="h" d="m178.83,230.24c1.05.6,2.69,2.18,3.07,2.17.24,0,4.45-3.22,1.93-5.83-.41-.42-1.22-1.14-1.93-1.28-.36.33-3,4.28-3.07,4.94Z"></path>
    <path class="h" d="m181.4,236.85c.24.39.9.73,1.27,1.03,1.44,1.14,1.62,1.88,2.7.66.97-1.1,2.5-2.72,1.58-4.45-.33-.63-1.59-1.9-2.49-1.99-.43.48-2.9,4.25-3.06,4.75Z"></path>
    <path class="j" d="m151.03,288.56l-.06-.19-.05-.17s-.03-.08-.05-.12c-.02-.03-.04-.07-.07-.11-.11-.21-.22-.39-.34-.53l-.11-.13-.32-.33-.42-.34-.07-.06c-.08-.07-.15-.12-.22-.17-.08-.05-.15-.1-.23-.15l-.15-.09-.3-.17c-.05-.03-.08-.04-.08-.04l-.05-.04s-.03,0-.04-.01c-.1-.03-.18-.01-.22.03,0,0-.02.02-.06.06l-.06.08-2.88,4.39c-.06.1-.1.17-.1.23s.04.11.12.18c.13.09.27.17.39.26.13.08.25.17.38.27l.13.12c.19.14.38.28.57.44.19.16.37.31.55.46l.19.15c.1.1.21.19.32.26l.14.11c.08.08.16.12.26.12.07.01.14,0,.25-.04.03-.01.04-.02.06-.03.02,0,.05-.03.07-.05.13-.06.29-.2.51-.41.05-.05.1-.1.14-.13.05-.04.09-.08.12-.13l.23-.25.13-.17.17-.21s.04-.06.07-.09c.02-.03.04-.07.06-.09.04-.04.08-.1.14-.17.03-.04.07-.1.1-.14.03-.04.06-.09.08-.14.03-.03.05-.07.06-.1.02-.03.04-.06.07-.08l.23-.35.09-.19.06-.11.04-.12c.04-.08.06-.15.08-.22.02-.08.04-.15.06-.23l.04-.12.04-.28v-.28s0-.04,0-.05-.01-.02-.01-.04l-.04-.26Z"></path>
    <path class="j" d="m153.54,295.5c-.07-.3-.18-.58-.34-.82-.16-.24-.35-.47-.57-.69-.21-.21-.45-.4-.71-.57-.26-.17-.51-.33-.76-.48-.1-.06-.19-.1-.28-.1-.08,0-.17.04-.25.16l-2.87,4.41c-.06.1-.09.17-.09.21s.03.11.09.2c.51.31.96.65,1.39,1.01.42.35.85.71,1.29,1.06.05.04.11.07.17.1.06.03.14.03.22,0s.19-.06.32-.14c.12-.07.27-.2.43-.37.26-.25.51-.52.73-.8.22-.28.44-.58.65-.91.26-.4.45-.79.55-1.16.11-.38.11-.75.01-1.09Z"></path>
    <path class="j" d="m156.79,288.2c-.06-.3-.18-.57-.34-.82-.16-.25-.35-.47-.56-.68-.21-.22-.45-.41-.71-.58-.26-.17-.51-.33-.76-.47-.1-.07-.19-.1-.28-.11-.08,0-.17.05-.25.16l-2.87,4.41c-.06.1-.09.17-.09.22,0,.04.03.11.09.19.5.31.96.65,1.39,1.01.42.36.85.71,1.28,1.07.05.03.11.06.17.09.06.03.14.03.22.01.08-.02.19-.07.32-.14.13-.08.28-.21.44-.38.26-.25.51-.51.73-.8.22-.28.44-.59.65-.91.26-.41.45-.8.55-1.17.11-.38.11-.74.01-1.09Z"></path>
    <path class="j" d="m146.69,265.91c1.02.42,1.68.44,2,.06.03-.04.41-.58,1.1-1.64.19-.3.32-.46.4-.46.12,0,.19.06.19.19.03.15,0,.4-.09.75-.09.35-.26.92-.51,1.72-.25.8-.64,1.54-1.18,2.23-.54.69-1.18.96-1.9.83-.37-.63-.53-1.24-.51-1.84.03-.6.19-1.22.51-1.84Z"></path>
    <path class="j" d="m137.03,289.45c0,.05,0,.09.02.11,0,.04,0,.07.02.1,0,.02,0,.05,0,.08,0,.03,0,.06,0,.08v.26s0,.05,0,.08c0,.03,0,.05,0,.08l-.06.22s0,.04-.01.06,0,.03,0,.06l-.08.22c-.03.05-.05.1-.06.15-.02.04-.04.1-.07.15,0,.01,0,.02-.01.03,0,0,0,.02,0,.03l-.1.17c-.03.07-.06.12-.1.16-.03.04-.06.09-.09.14-.03.03-.04.05-.04.06l-.23.34-.1.14s-.04.05-.07.09c-.02.04-.04.07-.06.1-.05.08-.1.13-.14.17l-.3.38s-.04.06-.04.08c-.03.02-.05.05-.08.08-.03.03-.06.06-.1.08l-.12.12c-.04.06-.08.12-.15.15l-.19.19-.09.08c-.14.12-.26.19-.36.22l-.12.04h-.13c-.1,0-.19-.04-.26-.12-.28-.21-.55-.43-.8-.66-.26-.22-.53-.44-.82-.65-.09-.08-.17-.14-.26-.21-.26-.2-.52-.38-.77-.54-.01,0-.02-.01-.02-.02-.07-.06-.1-.12-.1-.17,0-.04.03-.12.1-.23l2.89-4.37s0-.03.02-.04c.08-.12.18-.16.28-.14,0,0,.01,0,.04.02.01,0,.03,0,.03.02l.13.06s.05.04.08.04c.03,0,.05.03.08.05.03.01.04.02.07.03.03.01.05.03.08.06.05.03.1.06.15.1.08.05.15.1.22.14.08.04.15.1.23.16l.08.06c.11.08.22.17.32.26.1.08.2.18.3.28l.22.26.17.23c.09.12.16.25.21.37.03.04.05.1.08.17l.06.17s.02.03.02.04c0,.01,0,.03.02.06,0,.03,0,.06.02.07Z"></path>
    <path class="j" d="m142.78,289.09c.1.35.1.71-.01,1.09-.1.37-.29.77-.55,1.16-.21.33-.43.64-.65.91-.22.28-.46.55-.73.8-.16.17-.31.3-.43.38-.13.07-.23.12-.32.14-.09.01-.17.01-.22-.01-.06-.03-.12-.06-.17-.09-.44-.35-.87-.71-1.29-1.07-.42-.36-.89-.69-1.39-1.01-.06-.09-.09-.15-.09-.2,0-.04.03-.12.09-.21l2.87-4.41c.08-.11.17-.17.25-.16.08,0,.17.05.28.1.25.15.5.31.76.48.26.17.49.36.71.57.21.22.41.44.57.69.17.25.28.52.34.82Z"></path>
    <path class="j" d="m146.69,269.59c-.57-.1-1-.1-1.28,0-.77.3-1.63,1.19-2.6,2.67-1.2,1.81-2.46,2.71-3.77,2.71-1.39-.01-2.45-.62-3.16-1.81-.71-1.21-1.07-2.64-1.07-4.31.33-1.09.68-2.04,1.07-2.85.38-.8.84-1.35,1.36-1.65-.05,3.03,1.19,4.55,3.71,4.55,1.03.01,1.92-.31,2.69-.97.76-.66,1.32-1.16,1.68-1.52.51-.36.97-.54,1.37-.53.28.29.42.86.43,1.72.01.86-.13,1.52-.43,1.96Z"></path>
    <path class="j" d="m137.24,264.35c-.1,1.25-.38,2.32-.84,3.2-.47.88-1,1.32-1.59,1.32,0-.48.15-1.96.46-4.45.31-2.48.54-4.26.7-5.33.15-1.07.33-2.21.53-3.42.2-1.2.4-2.18.58-2.92.21-.62.44-1.23.69-1.86.24-.63.5-1.25.76-1.86.17-.28.28-.23.33.13-.32,2.09-.6,4.25-.87,6.49-.26,2.24-.44,3.84-.53,4.81-.1.97-.14,1.54-.14,1.7-.07,1.03-.1,1.76-.1,2.2Z"></path>
    <path class="j" d="m114.17,296.3c-.03.11-.06.17-.1.18-.05,0-.08-.03-.1-.1-.13-1.72-.2-3.56-.21-5.53-.01-1.96.08-4.58.28-7.83.21-3.25.7-6.29,1.49-9.1.25-.88.6-1.86,1.05-2.93.44-1.07,1.02-2.09,1.71-3.06.69-.98,1.58-1.9,2.65-2.79,1.07-.88,2.25-1.62,3.57-2.21l1.66-3.07c.34-.7.61-1.12.81-1.25.2-.14.52-.16.96-.09,1.29.26,2.27.55,2.92.85.66.3,1.04.73,1.14,1.27,0,.4-.06.78-.17,1.14-.12.37-.32.82-.6,1.37-.28.55-.59,1.04-.95,1.48-.35.44-.74.78-1.14,1.02-.41.23-.94.41-1.59.54-1.57.19-2.94.52-4.13,1.01-1.17.48-2.18,1.03-3.01,1.64-.83.62-1.5,1.25-2,1.89-.5.65-.86,1.23-1.07,1.74-.53,1.19-.91,2.34-1.15,3.43-.24,1.09-.5,2.62-.79,4.58-.29,1.97-.52,4.21-.69,6.74-.17,2.52-.3,4.56-.38,6.1-.03,1.36-.08,2.35-.15,2.98Z"></path>
    <path class="j" d="m108.66,239.31c.1.36.1.74-.01,1.13-.1.39-.3.8-.59,1.23-.17.29-.36.55-.55.78-.2.24-.4.46-.61.67-.06.08-.17.17-.3.28-.14.12-.28.22-.44.32-.15.1-.3.17-.43.22-.14.04-.24.03-.3-.05-.45-.36-.9-.73-1.34-1.11-.44-.38-.93-.73-1.45-1.05-.08-.06-.13-.12-.12-.18,0-.06.04-.14.1-.26l3.01-4.59c.09-.12.18-.18.26-.17.09,0,.18.04.28.1.26.15.53.32.79.51.26.19.51.39.73.61.23.22.42.46.6.71.17.26.29.55.37.86Z"></path>
    <path class="j" d="m101.47,266.06c0-.13-.1-.62-.28-1.49-.04-.26-.06-.52-.06-.77,0-.45.43-.83,1.3-1.15.72-.3,1.28-.62,1.7-.98.42-.35.65-.7.71-1.05.07-.28.08-.54.06-.78-.03-.25-.06-.51-.1-.82-.04-.3-.06-.59-.06-.87s.02-.5.06-.65c.04-.23.63-1.99,1.77-5.29.11-.17.22-.17.32,0,.06.12.09.34.09.68l-.06,4.46c-.03,1.59-.4,3.11-1.1,4.54-.69,1.43-1.35,2.51-1.98,3.22-.62.72-1.08,1.19-1.38,1.41-.58.75-.91.6-1-.45Z"></path>
    <path class="j" d="m102.11,267.79c-.75,1.82-1.39,3.12-1.9,3.91s-.95,1.33-1.3,1.61c-.37.28-.89.54-1.56.78-.67.24-1.38.45-2.13.62-.76.17-1.32.26-1.68.26h-.23c-.1-.13.41-.55,1.55-1.26,1.14-.72,2.08-1.37,2.81-1.96.74-.59,1.41-1.23,1.99-1.94.58-.7,1-1.43,1.25-2.2-.14.06-.31.12-.51.18-.2.06-.41.1-.63.13-.22.03-.43.05-.63.07-.2.01-.38,0-.53-.02-.72-.05-1.31-.29-1.78-.73-.47-.43-.69-.96-.67-1.59.04-.32.12-.69.26-1.11.14-.42.42-1.1.87-2.02.44-.92.92-1.68,1.44-2.29.52-.6,1.01-.91,1.46-.91.78,0,1.42.33,1.94.99.51.66.82,1.45.92,2.38.03.46.02.93-.03,1.39-.04.46-.1.85-.17,1.16-.07.31-.17.7-.31,1.18-.14.49-.29.93-.45,1.35Z"></path>
    <path class="j" d="m92.28,259.43c-.54,3.32-1.02,5.78-1.46,7.41-.43,1.63-.82,2.88-1.18,3.74-.35.86-.74,1.52-1.16,1.97-.42.45-1.19.88-2.31,1.29-1.12.41-2.06.69-2.81.85-.76.16-1.23.25-1.41.26-.19-.01-.31-.05-.36-.1-.05-.06,0-.19.14-.41.24-.34.73-.8,1.5-1.39.76-.59,1.65-1.32,2.69-2.2,1.03-.87,1.81-1.65,2.32-2.32.51-.67.97-1.59,1.37-2.75.39-1.16.78-2.38,1.16-3.64.38-1.26.65-2.13.82-2.58.17-.46.35-.67.52-.66.2.04.26.21.19.53Z"></path>
    <path class="g" d="m142.77,122.8c1.05,3.2,2.25,6.37,2.69,9.74.44,3.32.5,6.66.31,10.01-.2,3.46-.46,6.93-.71,10.39-.43,6.06-.87,12.12-1.29,18.18-.3,4.3-.56,8.6-.84,12.89-.43,6.45-.87,12.89-1.28,19.34-.3,4.59-.56,9.18-.85,13.77-.12,1.89-.2,3.79-.38,5.68-.11,1.22-.81,2.13-1.79,2.85-1.45,1.05-3.08,1.73-4.7,2.43-.29.13-.57.28-.85.42h-.39c-.85-.88-1.65-1.81-2.56-2.61-1.04-.91-1.79-2.01-2.44-3.2-.46-.82-.22-1.71-.11-2.55.95-7.04,2.39-14,3.94-20.92,1.63-7.27,2.93-14.61,4.46-21.91,2.36-11.25,4.8-22.49,6.98-33.78.75-3.91.56-7.94-.21-11.89-1.36-6.95-4.04-13.29-8.88-18.55-4.24-4.61-9.47-7.73-15.4-9.75-17.45-5.96-34.87-11.98-52.31-17.99-5.47-1.88-10.89-3.9-16.41-5.6-2.9-.9-4.04-2.92-4.72-5.52-.03-.12-.04-.25-.07-.38q-.6-2.59,1.45-4.22c.76-.61,1.55-1.15,2.41-1.59,1.42-.73,2.75-.83,4.3-.07,15.7,7.76,31.44,15.46,47.17,23.17,6.78,3.32,13.57,6.64,20.37,9.92,2.35,1.13,4.74,2.17,6.95,3.55,3.86,2.41,7.13,5.49,9.87,9.1,1.57,2.07,2.96,4.29,4.15,6.61.26.13.39.37.52.61.2.64.66,1.19.64,1.9Z"></path>
    <path class="g" d="m156.1,120.84c1.96-2.79,3.67-5.75,5.93-8.32,3.4-3.86,7.44-6.95,12.04-9.2,10.53-5.16,21.14-10.17,31.7-15.28,7.55-3.65,15.09-7.35,22.61-11.05,6.4-3.15,12.79-6.34,19.18-9.51,1.05-.52,2.13-.49,3.17-.08,1.87.75,3.49,1.92,5.05,3.16.53.42.64.89.51,1.52-.37,1.8-.84,3.56-1.55,5.26-.55,1.31-1.54,2.09-2.81,2.59-10.14,4-20.61,7.03-30.92,10.54-13.78,4.68-27.7,8.94-41.53,13.46-6.69,2.19-12.16,6.21-16.67,11.56-3.65,4.33-6.43,9.14-7.64,14.75-.8,3.67-1.03,7.42-.78,11.12.21,3.12,1.11,6.19,1.7,9.28,1.92,10,3.83,20,5.75,30,2.23,11.61,4.47,23.22,6.69,34.83.22,1.17.34,2.36.61,3.51.38,1.65-.45,2.9-1.36,4.04-.81,1.02-1.89,1.83-2.86,2.72-.41.37-.84.47-1.41.27-1.66-.59-3.32-1.15-4.77-2.24-1.09-.83-1.63-1.86-1.71-3.19-.33-4.94-.65-9.88-.99-14.82-.43-6.29-.87-12.57-1.3-18.86-.28-4.11-.54-8.21-.82-12.32-.44-6.45-.87-12.9-1.31-19.34-.32-4.71-.67-9.43-.97-14.14-.38-5.96.91-11.62,3.17-17.1.13-.32.36-.62.25-1.01-.03-.9.63-1.47,1.03-2.16Z"></path>
    <path class="g" d="m149.3,105.63c-7.8.06-14.65-1.95-20.95-5.97-6.76-4.31-13.25-9-19.89-13.48-14.85-10.02-29.69-20.06-44.54-30.09-1.23-.83-2.41-1.72-3.66-2.51-1.58-.99-2.23-2.35-2.15-4.2.07-1.57.13-3.14.38-4.7.08-.49.3-.72.7-.92,2.35-1.12,4.85-1.47,7.41-1.42.55,0,.96.49,1.39.81,2.75,2.08,5.38,4.29,7.95,6.59,10.73,9.57,21.45,19.15,32.15,28.76,5.77,5.18,11.49,10.41,17.24,15.62,4.9,4.44,10.69,7.05,17.1,8.4,2.78.59,5.59.93,8.42.93,5.06,0,9.82-1.29,14.39-3.48,4.1-1.96,7.49-4.83,10.88-7.76,8.54-7.38,17.14-14.71,25.7-22.07,9.34-8.03,18.7-16.05,28-24.13,1.56-1.36,3.23-1.43,5.04-1,1.21.29,2.39.75,3.59,1.12.31.09.5.26.57.58.4,2.05.76,4.09.36,6.2-.21,1.07-.8,1.77-1.67,2.35-5.93,3.97-11.85,7.98-17.79,11.94-16.29,10.88-32.57,21.77-48.88,32.63-4.72,3.14-10.04,4.7-15.62,5.42-2.14.27-4.29.42-6.12.39Z"></path>
    <path class="g" d="m84.65,22.42c2.06-.47,3.33.71,4.5,2.5,7.1,10.84,14.3,21.63,21.45,32.44,6.37,9.63,12.7,19.29,19.09,28.91,2.05,3.08,4.22,6.11,7.19,8.4,3.21,2.48,6.85,3.88,10.97,3.84.97-.01,1.93,0,2.9,0,5.58.04,10.25-2.07,14.11-6.03.49-.5.84-1.13,1.23-1.72,12.89-19.63,25.78-39.26,38.67-58.88,1.02-1.56,2.14-3.06,3.1-4.66.95-1.59,2.47-2,4.08-2.14,1.53-.13,3.09.01,4.63-.01.72-.01,1.11.23,1.33.95.6,1.93,1.33,3.8,1.38,5.88.03,1.27-.34,2.26-1.13,3.16-2.39,2.74-4.79,5.47-7.18,8.21-7.65,8.78-15.29,17.57-22.94,26.35-6.74,7.74-13.57,15.4-20.21,23.22-4.5,5.3-10.24,7.97-16.98,8.24-7.2.29-13.63-1.97-18.66-7.4-5.09-5.5-9.74-11.4-14.59-17.11-6.84-8.04-13.64-16.1-20.45-24.17-6.12-7.26-12.21-14.54-18.33-21.79-.74-.88-.92-1.82-.68-2.87.33-1.47.83-2.9,1.36-4.32.23-.62.61-.85,1.22-.87,1.25-.06,2.5-.22,3.96-.12Z"></path>
    <path class="g" d="m139.91,135.04c.12,1.96-1.25,5.48-2.51,9.02-6.89,19.34-13.77,38.68-20.65,58.02-1.75,4.93-3.52,9.86-5.19,14.82-.56,1.67-1.55,2.67-3.27,3.01-1.32.26-2.63.62-3.99.64-.38,0-.67-.08-.9-.41-1.08-1.52-2.15-3.05-2.86-4.79-.37-.91-.36-1.74.1-2.67,6.87-13.88,13.72-27.78,20.56-41.69,4.4-8.94,8.78-17.89,13.15-26.85,1.04-2.14,1.94-4.34,2.56-6.65,1.08-3.97.74-7.85-.74-11.63-2.14-5.43-5.47-9.85-10.78-12.62-2.46-1.28-5.08-1.49-7.75-1.63-9.05-.47-18.11-.93-27.16-1.41-7.03-.37-14.06-.77-21.09-1.15-8.35-.45-16.69-.97-25.04-1.31-2.15-.09-3.58-1.01-4.73-2.62-.92-1.28-1.67-2.67-2.36-4.09-.24-.5-.2-.89.15-1.33,1.35-1.7,2.88-3.21,4.7-4.41.83-.55,1.8-.66,2.79-.47,6.16,1.17,12.31,2.33,18.46,3.5,10.67,2.03,21.33,4.08,32,6.11,8.65,1.64,17.31,3.19,25.94,4.93,6.86,1.39,11.77,5.6,15.22,11.5,2.18,3.73,3.26,7.88,3.4,14.14Z"></path>
    <path class="g" d="m258.28,95.14c1.4-.12,2.25.83,3.13,1.66.58.55.99,1.28,1.6,1.8,1.08.92,1.02,1.84.41,3.01-.75,1.42-1.31,2.93-2.44,4.13-.61.65-1.32.97-2.19,1.02-3.88.25-7.76.52-11.64.78-5.64.38-11.29.76-16.94,1.12-4.4.28-8.79.53-13.19.81-6.71.43-13.41.88-20.11,1.31-4.33.28-8.67.52-13,.82-3.43.24-6.86.58-10.12,1.79-5.27,1.96-8.56,6-11.12,10.75-1.94,3.6-2.77,7.48-2.35,11.54.21,2.01.95,3.9,1.88,5.73,4.72,9.25,9.38,18.53,14.07,27.79,6.62,13.08,13.24,26.16,19.89,39.22.82,1.61.76,3.12.06,4.71-.67,1.54-1.57,2.95-2.4,4.4-.36.61-.8.82-1.42.67-1.75-.41-3.52-.74-5.19-1.45-1.48-.63-2.42-1.66-2.95-3.21-3.12-9.19-6.29-18.36-9.46-27.53-5.09-14.76-10.1-29.55-15.37-44.24-1.33-3.71-1.77-7.4-1.34-11.16.51-4.42,2.43-8.36,5.19-11.87,4.01-5.11,9.18-8.17,15.61-9.28,10.98-1.9,21.94-3.94,32.91-5.93,13.21-2.4,26.42-4.81,39.63-7.22,2.27-.41,4.53-.92,6.83-1.19Z"></path>
    <path class="g" d="m129.25,128.6c.06,1.16-.64,2.62-2.09,3.83-10.92,9.11-21.6,18.49-32.32,27.83-6.77,5.9-13.45,11.89-20.2,17.8-2.98,2.6-6.04,5.11-9.07,7.65-1.43,1.2-2.99,1.43-4.77.83-3.93-1.33-4.33-1.79-4.59-5.93-.12-1.89.43-3.38,2.12-4.51,7.7-5.2,15.35-10.49,23.02-15.74,14.74-10.07,29.47-20.15,44.22-30.2,1.93-1.31,1.72-2.85.35-4.21-.75-.74-1.52-.5-2.29-.13-5.09,2.47-10.2,4.9-15.25,7.44-14.1,7.09-28.18,14.22-42.27,21.34-4.96,2.51-9.94,4.98-14.87,7.56-1.6.84-3.05.8-4.57,0-1.45-.77-2.85-1.63-4.17-2.61-.39-.29-.65-.59-.6-1.12.21-1.96.47-3.89,1.4-5.67.43-.83,1.02-1.4,1.95-1.73,14.8-5.27,29.59-10.56,44.38-15.85,10.35-3.7,20.7-7.38,31.05-11.07,1.06-.38,2.15-.65,3.25-.87,1.22-.25,2.35.04,3.25.83,1.14,1,2.13,2.15,2.08,4.53Z"></path>
    <path class="g" d="m149.46,91.74c-2.69,0-4.31-1.18-4.8-3.61-1.07-5.42-2.05-10.86-3.07-16.28-1.52-8.02-3.01-16.04-4.58-24.05-2.1-10.75-4.28-21.49-6.36-32.24-.59-3.03-.96-6.09-1.42-9.14-.14-.95.21-1.77.74-2.53,1.14-1.61,2.74-2.7,4.36-3.75.26-.17.47-.12.72-.01,1.48.62,2.93,1.3,4.31,2.14,1.25.76,1.76,1.85,1.86,3.26.54,7.54,1.12,15.07,1.66,22.6.43,5.9.82,11.8,1.23,17.7.62,8.98,1.27,17.96,1.86,26.94.3,4.56.58,9.11,1.03,13.66.09.92,0,1.93.83,2.67.83.73,1.76.6,2.62.28.83-.31,1.27-1.08,1.33-1.96.41-5.32.85-10.64,1.19-15.97.54-8.34,1.01-16.69,1.5-25.03.46-7.83.91-15.66,1.36-23.49.34-5.84.66-11.68,1.01-17.52.07-1.07.82-1.8,1.6-2.42,1.6-1.28,3.51-2,5.32-2.9.34-.17.55,0,.79.16,1.42.91,2.66,2.01,3.8,3.26,1.11,1.22,1.25,2.62.96,4.14-2.15,11.49-4.31,22.98-6.45,34.48-2.09,11.24-4.16,22.49-6.25,33.73-.69,3.7-1.37,7.39-2.13,11.07-.32,1.54-.8,3.01-2.25,4-.94.64-1.89.93-2.79.84Z"></path>
    <path class="g" d="m165.91,129.87c-.14,2,.55,3.9,2.04,5.6,4.83,5.52,9.6,11.09,14.4,16.64,8.64,9.97,17.28,19.93,25.93,29.89,4.05,4.66,8.09,9.33,12.17,13.97.86.97,1.09,1.97.76,3.2-.47,1.76-1.29,3.35-2.18,4.92-.25.44-.58.63-1.09.65-1.09.03-2.18.14-3.27.17-1.72.06-3.09-.56-4.09-2.04-8.99-13.3-17.99-26.58-27-39.87-5.65-8.33-11.23-16.71-17.06-24.92-1.53-2.15-2.61-4.48-2.83-7.08-.28-3.25.69-6.28,2.68-8.84,2.39-3.06,5.51-4.89,9.51-5.18,3.69-.27,7.31.34,10.96.53,3.82.2,7.63.59,11.44.87,5.87.44,11.73.87,17.6,1.29,4.78.35,9.56.67,14.33,1.04,4.45.34,8.91.73,13.36,1.07,4.01.3,8.02.57,12.03.86,1.09.08,2.18.19,3.27.22,1.32.04,2.09.92,2.79,1.84,1.02,1.34,1.63,2.91,2.29,4.45.11.26.11.48-.05.72-1.06,1.65-2.08,3.32-3.56,4.67-.84.76-1.71.96-2.82.76-5.51-.97-10.96-2.2-16.44-3.31-11.17-2.27-22.35-4.56-33.52-6.83-6.3-1.28-12.59-2.59-18.92-3.74-4.1-.75-8.2-1.57-12.39-1.82-2.91-.17-5.18,1.01-7.2,2.87-2.11,1.94-3.17,4.45-3.17,7.42Z"></path>
    <path class="g" d="m256.37,157.59c.34.93-.29,1.66-1.27,2.3-.94.61-1.82,1.32-2.84,1.82-1.35.67-2.67.71-4.07.04-11.77-5.7-23.56-11.38-35.34-17.07-12.36-5.96-24.72-11.93-37.08-17.89-.55-.26-1.12-.5-1.7-.68-1.2-.39-2.35.17-2.92,1.39-.43.93-.04,2.1.91,2.77,15.67,10.89,31.74,21.16,47.66,31.67,6.57,4.34,13.15,8.69,19.75,12.99,1.71,1.11,2.54,2.51,2.39,4.57-.11,1.47-.08,2.95-.21,4.43-.04.4-.17.64-.54.81-1.87.88-3.75,1.66-5.88,1.64-.85,0-1.57-.17-2.21-.72-2.7-2.29-5.41-4.56-8.1-6.86-8.71-7.44-17.42-14.87-26.12-22.32-7.48-6.4-14.95-12.82-22.41-19.24-2.05-1.76-4.17-3.44-6.12-5.32-1.33-1.29-1.86-2.89-1.42-4.57.72-2.73,3.59-4.66,6.32-3.7,7.06,2.5,14.11,5,21.17,7.48,15.95,5.6,31.96,10.99,47.97,16.4,2.89.98,5.72,2.13,8.6,3.15,2.1.74,2.88,2.41,3.25,4.38.14.72.12,1.47.19,2.53Z"></path>
    <path class="g" d="m147.75,96.56c-3.45-.46-7.18-2.3-9.52-6.2-2.9-4.83-4.98-10.08-7.43-15.13-7.24-14.92-14.41-29.88-21.6-44.82-2.26-4.69-4.46-9.41-6.72-14.1-.7-1.44-.6-2.77.15-4.14.71-1.3,1.45-2.58,2.46-3.68.21-.23.41-.49.79-.48,1.77.08,3.53.13,5.26.56,1.37.34,2.19,1.13,2.64,2.51,2.63,8.07,5.31,16.11,7.98,24.16,2.93,8.84,5.84,17.69,8.81,26.52,2.99,8.86,5.73,17.8,9.46,26.39,2.68,6.17,10.46,8.23,15.83,3.9,1.12-.9,1.89-1.95,2.39-3.28,2.39-6.31,4.47-12.73,6.68-19.1,6.46-18.6,12.87-37.22,19.3-55.83.03-.09.07-.18.09-.28.42-2.3,1.88-3.37,4.14-3.5.8-.05,1.61-.09,2.4-.26,1.72-.37,2.79.38,3.52,1.86.33.66.73,1.28,1.06,1.94.71,1.39.76,2.71.02,4.21-4.87,9.89-9.7,19.8-14.47,29.74-6.42,13.39-13.09,26.66-19.34,40.13-1.52,3.28-3.56,6.02-6.91,7.61-1.9.9-3.91,1.25-6.99,1.26Z"></path>
    <path class="g" d="m134.32,130.45c.38,2.78-.98,5.53-2.75,8.13-6.25,9.21-12.52,18.4-18.77,27.61-7.92,11.69-15.83,23.39-23.74,35.08-.85,1.25-1.7,2.5-2.58,3.73-.55.78-1.35,1.2-2.29,1.23-1.64.04-3.28.05-4.92-.14-.72-.09-1.2-.35-1.51-1.09-.58-1.36-1.26-2.67-1.77-4.06-.52-1.41-.31-2.62.71-3.74,1.62-1.79,3.2-3.61,4.8-5.41,5.18-5.85,10.35-11.71,15.55-17.56,7.86-8.85,15.71-17.71,23.47-26.65,3.21-3.7,6.26-7.51,9.28-11.35,3.79-4.82,2.52-10.86-.89-14.13-2.56-2.46-5.49-3.04-8.96-2.33-12.84,2.62-25.71,5.1-38.57,7.63-12.83,2.52-25.67,5.01-38.48,7.59-1.88.38-3.19-.07-4.23-1.59-.84-1.22-1.68-2.43-2.53-3.65-.18-.25-.25-.48-.11-.8.73-1.65,1.47-3.29,2.69-4.65.68-.75,1.5-1.18,2.52-1.25,5.64-.4,11.29-.8,16.93-1.22,6.44-.48,12.88-.99,19.33-1.48,4.68-.35,9.36-.66,14.04-1.01,6.64-.49,13.27-1.07,19.91-1.48,3.37-.21,6.7-.89,10.08-.84,6.05.09,9.9,3.29,12.25,8.67.61,1.4.49,2.83.54,4.77Z"></path>
    <path class="d" d="m156.1,120.84c-.02.88-.68,1.45-1.03,2.16-2,.42-2.91-.84-3.65-2.56-.25.57-.42.99-.61,1.4-.81,1.77-3.32,1.9-4.19.8-.56-.72-.74-1.55-.69-2.42.05-.83.2-1.65.24-2.5-.51.69-.63,1.53-.9,2.31-.24.66-.41,1.35-.67,2-.45,1.11-.72,1.2-1.82.76-.43-.54-.62-1.19-.82-1.84-.18-.79-.07-1.59-.04-2.38.11-.38.04-.82.4-1.3,0,.84,0,1.52,0,2.2,0,.22-.07.46-.02.67.18.68.29,1.59,1.1,1.63.69.04.88-.8,1.08-1.41.41-1.32.82-2.63,1.24-3.95.08-.24.14-.51.3-.69.25-.28.54-.7.94-.55.42.16.18.62.13.94-.13.82-.28,1.64-.43,2.46-.12.64-.14,1.27.12,1.89.45,1.08.99,1.34,2.38,1.15.77-.11,1.58-1.04,1.72-1.82.29-1.54-.37-2.98-.43-4.48-.02-.52-.28-1.35.3-1.43.59-.08.55.82.68,1.3.41,1.55.55,3.17,1.2,4.65.51,1.15,1.18,1.51,2.16,1.28.58-.14.82-.35.54-1-.68-1.56-1.11-3.21-1.52-4.86-.17-.66-.32-1.59.41-1.78.59-.15.9.76,1.14,1.35.12.29.35.6-.11.89-.3.19-.04.53.04.79.41,1.42.92,2.81.85,4.33Z"></path>
    <path class="d" d="m147.71,105.83c.62.8.9,1.72,1.24,2.61.05.14.14.37-.07.41-.63.13-.36.6-.34.92.22,3.34.63,6.66.59,10.01,0,.63-.17,1.16-.73,1.81-.08-1.08-.17-1.95-.21-2.83-.19-3.85-.32-7.7-1.02-11.51-.11-.57.11-.99.55-1.41Z"></path>
    <path class="i" d="m150.38,109.19c.44.67.29,1.44.98,1.82.16-.64-.42-1.17-.15-1.84.6.68.66,1.44.57,2.24-.03.22-.33.39-.41.3-.65-.78-1.51.78-2.02-.16-.28-.51-.26-1.18-.36-1.78-.03-.15.09-.24.23-.23.08,0,.14.1.21.16.02.02.01.06.02.09.11.48-.2,1.37.56,1.27.68-.09.1-.94.25-1.43.03-.08.04-.17.11-.44Z"></path>
    <path class="e" d="m141.9,118.58c.01.79.03,1.59.04,2.38-.21-.18-.27-.43-.34-.67.39-.52-.07-1.19.29-1.71Z"></path>
    <rect class="f" width="300" height="300"></rect>
  </g>
</svg>
